<svg width="22" height="27" viewBox="0 0 22 27" fill="none" xmlns="http://www.w3.org/2000/svg"><path d="M1.13567 26.1525L1.13337 26.1512C1.01752 26.0861 0.921053 25.9914 0.853844 25.8767C0.786723 25.7622 0.75119 25.6319 0.75087 25.4992V3.495V3.48655L0.750679 3.4781C0.734848 2.77584 0.996398 2.09563 1.47864 1.58488C1.95809 1.07711 2.61726 0.777513 3.31474 0.75H17.687C18.3845 0.777513 19.0437 1.07711 19.5231 1.58488C20.0053 2.09563 20.2669 2.77584 20.2511 3.4781L20.2509 3.48655V3.495V25.4973C20.2498 25.6276 20.2148 25.7553 20.1493 25.8679C20.0835 25.9811 19.9892 26.075 19.8759 26.1405L19.8759 26.1405C19.7619 26.2063 19.6325 26.241 19.5009 26.241C19.3692 26.241 19.2399 26.2063 19.1259 26.1405L19.1259 26.1405L19.1204 26.1373L10.6154 21.3223L10.2348 21.1069L9.85982 21.332L1.86482 26.132L1.86478 26.1319L1.85533 26.1378C1.74574 26.2058 1.62051 26.2444 1.49176 26.2499C1.36686 26.2476 1.24444 26.2142 1.13567 26.1525Z" stroke="#FF6600" stroke-width="1.5"></path></svg>